<?xml version="1.0" encoding="UTF-8" standalone="no"?>
<!-- Created with Inkscape (http://www.inkscape.org/) -->

<svg
   xmlns:dc="http://purl.org/dc/elements/1.1/"
   xmlns:cc="http://creativecommons.org/ns#"
   xmlns:rdf="http://www.w3.org/1999/02/22-rdf-syntax-ns#"
   xmlns:svg="http://www.w3.org/2000/svg"
   xmlns="http://www.w3.org/2000/svg"
   xmlns:sodipodi="http://sodipodi.sourceforge.net/DTD/sodipodi-0.dtd"
   xmlns:inkscape="http://www.inkscape.org/namespaces/inkscape"
   width="48"
   height="48"
   id="svg5620"
   version="1.1"
   inkscape:version="0.91 r"
   viewBox="0 0 48 48"
   sodipodi:docname="facebook.svg">
  <defs
     id="defs5622" />
  <sodipodi:namedview
     id="base"
     pagecolor="#ffffff"
     bordercolor="#666666"
     borderopacity="1.0"
     inkscape:pageopacity="0.0"
     inkscape:pageshadow="2"
     inkscape:zoom="7"
     inkscape:cx="21.5"
     inkscape:cy="35.428571"
     inkscape:current-layer="layer1"
     showgrid="true"
     inkscape:grid-bbox="true"
     inkscape:document-units="px"
     inkscape:showpageshadow="false"
     inkscape:window-width="1317"
     inkscape:window-height="744"
     inkscape:window-x="49"
     inkscape:window-y="24"
     inkscape:window-maximized="1" />
  <metadata
     id="metadata5625">
    <rdf:RDF>
      <cc:Work
         rdf:about="">
        <dc:format>image/svg+xml</dc:format>
        <dc:type
           rdf:resource="http://purl.org/dc/dcmitype/StillImage" />
        <dc:title />
      </cc:Work>
    </rdf:RDF>
  </metadata>
  <g
     id="layer1"
     inkscape:label="Layer 1"
     inkscape:groupmode="layer">
    <path
       d="m 30.086504,10.41434 c 1.289211,-0.8131712 2.727416,-1.3873344 4.108069,-1.7945503 -0.36003,0.1852709 -0.714943,0.3844601 -1.062828,0.6019774 -0.02112,0.014575 -0.03772,0.033523 -0.0588,0.048678 -1.003984,0.3781345 -2.014375,0.8517489 -2.966577,1.4474019 -0.29735,0.200447 -0.540996,0.465391 -0.751392,0.775868 0.236615,-0.579207 0.497526,-0.957342 0.731573,-1.079386 z m -0.19375,13.281443 0.326132,-0.0091 c 0,0.01205 0,0.02405 0,0.0354 l -0.326132,0.0097 c 0,-0.01268 0,-0.02398 0,-0.03601 z m 1.286001,-9.561454 c -0.212948,0.607664 -0.375376,1.30955 -0.518619,2.101856 -0.207202,1.232413 -0.331262,2.68298 -0.392653,4.272027 l -0.373453,0.01066 c 0.04351,-1.970966 0.170097,-3.745281 0.408628,-5.162324 0.267947,-1.709821 0.784655,-2.862554 1.226535,-3.178726 -0.07868,0.337031 -0.153478,0.687985 -0.220623,1.06485 -0.04798,0.284538 -0.0901,0.584274 -0.129815,0.891586 z m 11.937291,10.369568 1.753472,-0.05057 -0.03642,-1.159682 -12.730258,0.372438 c 0,-0.01142 -0.0012,-0.02273 -0.0023,-0.0354 l 8.442491,-0.247255 -0.01664,-0.576673 2.178731,-0.06322 -0.0179,-0.62853 0.451478,-0.01384 -0.02427,-0.809389 1.536692,-0.04547 -0.03454,-1.159684 -12.577415,0.369269 c 0,-0.07778 -0.0031,-0.161245 -0.0031,-0.238398 0,-2.166352 0.08625,-4.155013 0.287769,-5.795921 0.2513,-0.661415 0.534597,-1.095824 0.787824,-1.228608 2.130163,-1.343053 4.672762,-2.044939 6.676908,-2.395885 2.003462,-0.355373 3.441661,-0.361066 3.445504,-0.365492 l -0.0096,-1.1597028 c -0.04736,0.00751 -5.839791,0.028436 -10.454954,2.7708628 0.0722,-0.249771 0.148353,-0.476765 0.228934,-0.681016 1.783501,-0.854275 3.696203,-1.356341 5.277652,-1.6345658 2.004185,-0.3534781 3.44175,-0.3616953 3.444947,-0.3648598 l -0.0084,-1.1596757 c -0.01153,0.0028 -0.32805,0.00569 -0.862034,0.040454 l -0.0041,-0.4673016 c -0.006,0.00175 -0.115108,0.00415 -0.306316,0.01021 1.949744,-0.3376673 3.339354,-0.3427225 3.342537,-0.348413 l -0.0091,-1.1584059 c -0.02366,0.00502 -1.560345,0.011998 -3.674486,0.3888811 l -0.0012,-0.1738935 c -0.04748,0.00752 -5.77341,0.025921 -10.375796,2.7221499 0.278688,-0.8637913 0.616982,-1.4271945 0.91242,-1.5808555 2.128868,-1.3418024 4.671459,-2.0436859 6.675611,-2.3971601 2.004199,-0.3547721 3.443032,-0.3598292 3.444956,-0.3655229 l -0.0086,-1.1584571 c -0.04872,0.00885 -6.082844,0.027185 -10.741488,2.9415979 -1.042371,0.7044046 -1.4817,2.1246106 -1.823823,4.021601 -0.03004,0.177054 -0.05623,0.363594 -0.08244,0.548869 -0.237214,0.635492 -0.41307,1.382903 -0.565917,2.230853 -0.319656,1.903309 -0.443715,4.316269 -0.443715,6.972697 0,0.05562 7.28e-4,0.111915 7.28e-4,0.168828 l -8.08308,0.236498 0.02427,0.810011 -1.537963,0.04482 0.0185,0.627909 -0.450842,0.01327 0.01734,0.577318 L 15,22.973747 l 0.03524,1.157789 12.212905,-0.357895 c 0,0.0114 0.0017,0.02333 0.0017,0.0354 l -7.927077,0.232064 0.02426,0.803701 -1.753464,0.05119 0.03454,1.16033 9.701049,-0.285151 c 0.444448,9.417901 1.807829,19.438421 1.808476,19.44981 l 0.473878,-0.06382 c 0.107441,0.854909 0.173938,1.343072 0.173938,1.346866 l 0.794902,-0.106871 c 0.04419,0.340208 0.06975,0.532428 0.06975,0.533692 l 1.162057,-0.154277 c -7.62e-4,-0.0068 -0.483986,-3.562573 -0.968074,-8.427072 -0.378144,-3.790211 -0.751605,-8.366998 -0.899322,-12.654196 l 0.306313,-0.0083 C 30.506227,35.809971 32.162495,47.987355 32.163135,48 l 1.162924,-0.154956 c -0.0013,-0.0047 -0.147083,-1.0838 -0.358753,-2.858746 l 1.008475,-0.134057 -0.0023,0 c -0.0017,-0.0078 -0.483866,-3.560661 -0.96859,-8.425805 C 32.682589,33.17949 32.362845,29.3558 32.183797,25.630122 l 10.95584,-0.32127 -0.02362,-0.804326"
       style="fill:#3b579d;fill-opacity:1;fill-rule:nonzero;stroke:none;stroke-opacity:1"
       id="path38"
       inkscape:connector-curvature="0" />
  </g>
</svg>
