<?xml version="1.0" encoding="UTF-8" standalone="no"?>
<!-- Created with Inkscape (http://www.inkscape.org/) -->

<svg
   xmlns:dc="http://purl.org/dc/elements/1.1/"
   xmlns:cc="http://creativecommons.org/ns#"
   xmlns:rdf="http://www.w3.org/1999/02/22-rdf-syntax-ns#"
   xmlns:svg="http://www.w3.org/2000/svg"
   xmlns="http://www.w3.org/2000/svg"
   xmlns:sodipodi="http://sodipodi.sourceforge.net/DTD/sodipodi-0.dtd"
   xmlns:inkscape="http://www.inkscape.org/namespaces/inkscape"
   width="48"
   height="48"
   id="svg4150"
   version="1.1"
   inkscape:version="0.91 r"
   viewBox="0 0 48 48"
   sodipodi:docname="github.svg">
  <defs
     id="defs4152">
    <inkscape:path-effect
       effect="spiro"
       id="path-effect4204"
       is_visible="true" />
    <inkscape:path-effect
       effect="spiro"
       id="path-effect4200"
       is_visible="true" />
    <inkscape:path-effect
       effect="spiro"
       id="path-effect4196"
       is_visible="true" />
    <inkscape:path-effect
       effect="spiro"
       id="path-effect4909"
       is_visible="true" />
    <inkscape:path-effect
       effect="spiro"
       id="path-effect4905"
       is_visible="true" />
    <inkscape:path-effect
       effect="spiro"
       id="path-effect4901"
       is_visible="true" />
    <inkscape:path-effect
       effect="spiro"
       id="path-effect4897"
       is_visible="true" />
    <inkscape:path-effect
       effect="spiro"
       id="path-effect4893"
       is_visible="true" />
    <inkscape:path-effect
       effect="spiro"
       id="path-effect4889"
       is_visible="true" />
    <inkscape:path-effect
       effect="spiro"
       id="path-effect4885"
       is_visible="true" />
    <inkscape:path-effect
       effect="spiro"
       id="path-effect4881"
       is_visible="true" />
    <inkscape:path-effect
       effect="spiro"
       id="path-effect4877"
       is_visible="true" />
    <inkscape:path-effect
       effect="spiro"
       id="path-effect4873"
       is_visible="true" />
    <inkscape:path-effect
       effect="spiro"
       id="path-effect4869"
       is_visible="true" />
    <inkscape:path-effect
       effect="spiro"
       id="path-effect4865"
       is_visible="true" />
    <inkscape:path-effect
       effect="spiro"
       id="path-effect4861"
       is_visible="true" />
    <inkscape:path-effect
       effect="spiro"
       id="path-effect4857"
       is_visible="true" />
    <inkscape:path-effect
       effect="spiro"
       id="path-effect4853"
       is_visible="true" />
    <inkscape:path-effect
       effect="spiro"
       id="path-effect4849"
       is_visible="true" />
    <inkscape:path-effect
       effect="spiro"
       id="path-effect4845"
       is_visible="true" />
    <inkscape:path-effect
       effect="spiro"
       id="path-effect4841"
       is_visible="true" />
  </defs>
  <sodipodi:namedview
     id="base"
     pagecolor="#ffffff"
     bordercolor="#666666"
     borderopacity="1.0"
     inkscape:pageopacity="0.0"
     inkscape:pageshadow="2"
     inkscape:zoom="11.313708"
     inkscape:cx="6.6819815"
     inkscape:cy="26.178039"
     inkscape:current-layer="layer1"
     showgrid="true"
     inkscape:grid-bbox="true"
     inkscape:document-units="px"
     inkscape:showpageshadow="false"
     inkscape:window-width="1317"
     inkscape:window-height="744"
     inkscape:window-x="49"
     inkscape:window-y="24"
     inkscape:window-maximized="1" />
  <metadata
     id="metadata4155">
    <rdf:RDF>
      <cc:Work
         rdf:about="">
        <dc:format>image/svg+xml</dc:format>
        <dc:type
           rdf:resource="http://purl.org/dc/dcmitype/StillImage" />
        <dc:title />
      </cc:Work>
    </rdf:RDF>
  </metadata>
  <g
     id="layer1"
     inkscape:label="Layer 1"
     inkscape:groupmode="layer">
    <ellipse
       style="opacity:1;fill:#1b1817;fill-opacity:1;stroke:none;stroke-width:0.08489063;stroke-linecap:round;stroke-linejoin:round;stroke-miterlimit:4;stroke-dasharray:none;stroke-dashoffset:0;stroke-opacity:1"
       id="path4223"
       cx="17.622805"
       cy="30.653439"
       rx="0.72393316"
       ry="0.50788456"
       transform="matrix(0.9651625,0.26165118,-0.12935834,0.99159791,0,0)" />
    <ellipse
       style="opacity:1;fill:#1b1817;fill-opacity:1;stroke:none;stroke-width:0.08489063;stroke-linecap:round;stroke-linejoin:round;stroke-miterlimit:4;stroke-dasharray:none;stroke-dashoffset:0;stroke-opacity:1"
       id="path4223-8"
       cx="14.610313"
       cy="34.477459"
       rx="0.72393316"
       ry="0.50788456"
       transform="matrix(0.99273578,0.12031485,0.01440321,0.99989627,0,0)" />
    <ellipse
       style="opacity:1;fill:#1b1817;fill-opacity:1;stroke:none;stroke-width:0.08489063;stroke-linecap:round;stroke-linejoin:round;stroke-miterlimit:4;stroke-dasharray:none;stroke-dashoffset:0;stroke-opacity:1"
       id="path4223-7"
       cx="7.1609049"
       cy="38.632729"
       rx="0.72393316"
       ry="0.50788456"
       transform="matrix(0.99090443,-0.1345675,0.26671959,0.96377417,0,0)"
       inkscape:transform-center-x="-6.2629457"
       inkscape:transform-center-y="0.40406102" />
    <ellipse
       style="opacity:1;fill:#1b1817;fill-opacity:1;stroke:none;stroke-width:0.08489063;stroke-linecap:round;stroke-linejoin:round;stroke-miterlimit:4;stroke-dasharray:none;stroke-dashoffset:0;stroke-opacity:1"
       id="path4223-88"
       cx="29.683495"
       cy="15.339444"
       rx="0.72393316"
       ry="0.50788456"
       transform="matrix(0.69746104,0.7166227,-0.61622244,0.78757216,0,0)"
       inkscape:transform-center-x="-3.6365491"
       inkscape:transform-center-y="-0.10101525" />
    <ellipse
       style="opacity:1;fill:#1b1817;fill-opacity:1;stroke:none;stroke-width:0.08489063;stroke-linecap:round;stroke-linejoin:round;stroke-miterlimit:4;stroke-dasharray:none;stroke-dashoffset:0;stroke-opacity:1"
       id="path4223-2"
       cx="28.541653"
       cy="13.861715"
       rx="0.61761248"
       ry="0.41291672"
       transform="matrix(0.66512788,0.74672947,-0.6653758,0.74650857,0,0)" />
    <ellipse
       style="opacity:1;fill:#1b1817;fill-opacity:1;stroke:none;stroke-width:0.08489063;stroke-linecap:round;stroke-linejoin:round;stroke-miterlimit:4;stroke-dasharray:none;stroke-dashoffset:0;stroke-opacity:1"
       id="path4223-3"
       cx="12.078016"
       cy="27.241705"
       rx="0.46752512"
       ry="0.36423036"
       transform="matrix(0.95670593,0.2910563,-0.11546964,0.99331101,0,0)" />
    <path
       style="opacity:1;fill:#000000;fill-opacity:1;stroke:none;stroke-width:0.1;stroke-linecap:round;stroke-linejoin:round;stroke-miterlimit:4;stroke-dasharray:none;stroke-dashoffset:0;stroke-opacity:1"
       d=""
       id="path4294"
       inkscape:connector-curvature="0" />
    <path
       style="fill:#1b1817;fill-opacity:1;stroke:none;stroke-width:1px;stroke-linecap:butt;stroke-linejoin:miter;stroke-opacity:1"
       d="M 17.387787,44.777757 C 16.387071,44.565212 15.189201,44.226854 14.429751,43.942215 8.1269166,41.579929 3.8347996,36.044636 2.5775536,28.657127 c -0.24024,-1.411637 -0.332931,-4.689108 -0.17627,-6.232778 0.221748,-2.185014 0.815786,-4.814269 1.476084,-6.533246 1.19148,-3.101825 4.077817,-6.9321009 6.8370984,-9.0730832 3.041,-2.3595729 6.686309,-3.8656486 10.69499,-4.4186818 1.245477,-0.1718246 4.483107,-0.1500741 5.750403,0.038631 3.533008,0.5260786 6.428446,1.7128705 9.322706,3.8212229 5.227583,3.8080831 8.248917,7.8507351 9.404692,12.5838101 0.741466,3.036419 0.771534,6.926085 0.07865,10.173769 -1.348298,6.319696 -5.224081,11.543824 -10.458504,14.096909 -1.48525,0.724428 -2.599364,1.082126 -4.694256,1.507134 -0.156932,0.03184 -0.231603,-0.06013 -0.471667,-0.580961 -0.544686,-1.181711 -0.650594,-2.739003 -0.402543,-5.919082 0.279457,-3.582699 0.106304,-5.26938 -0.665958,-6.487111 -0.144166,-0.227326 -0.26212,-0.426113 -0.26212,-0.44175 0,-0.01564 0.407692,-0.04992 0.905981,-0.07618 4.183367,-0.220505 7.336533,-3.129244 8.120095,-7.490643 C 38.2069,22.67904 38.184129,20.662643 37.993015,19.736 37.65269,18.085876 37.046059,16.687193 36.233477,15.679103 L 35.84885,15.201934 36.318562,14.264889 C 37.159744,12.586774 37.597414,11.070463 37.726923,9.3855861 37.812951,8.2663968 37.87623,8.2989798 35.732481,8.358623 32.850556,8.438804 30.914579,8.9288621 29.461987,9.9458891 L 29.161819,10.156051 28.445521,9.9474871 c -1.383364,-0.402794 -2.719845,-0.578681 -3.986667,-0.524662 -1.408621,0.06006 -2.350358,0.280641 -3.477228,0.8144439 -0.458302,0.2171 -0.868728,0.394727 -0.912059,0.394727 -0.04333,0 -0.326372,-0.230177 -0.62898,-0.511503 C 17.903955,8.6919301 16.433139,7.9552329 14.293135,7.5422549 13.312883,7.3530858 13.104326,7.3765739 12.935898,7.695109 c -0.122021,0.2307706 -0.598983,2.411238 -0.768061,3.511248 -0.08218,0.53466 -0.15444,1.40649 -0.160579,1.9374 l -0.01116,0.965292 -0.468209,0.443753 c -0.910135,0.862598 -1.6281634,2.363325 -1.9250234,4.023434 -0.158458,0.886136 -0.178784,2.838161 -0.03969,3.81141 0.5047174,3.53146 2.5199144,6.51104 5.3742624,7.946145 1.16657,0.586525 3.034569,1.069467 4.136659,1.069467 l 0.469914,0 -0.256264,0.552427 c -0.140946,0.303835 -0.340362,0.969342 -0.443148,1.478904 -0.102787,0.509562 -0.232118,0.954433 -0.287403,0.988601 -0.38706,0.239217 -1.587742,0.536414 -2.185877,0.541058 -1.384097,0.01075 -2.042766,-0.395699 -4.448331,-2.744939 -1.866476,-1.822772 -2.4645614,-2.270682 -3.4182334,-2.559934 -0.931433,-0.282507 -2.645397,-0.113569 -3.11569,0.307098 -0.402368,0.359911 -0.05074,1.074504 0.641939,1.304575 0.990007,0.328828 1.927978,1.247737 3.202494,3.137414 2.2332934,3.311218 3.1910684,4.2749 4.9067614,4.937027 0.550082,0.21229 0.697762,0.229524 1.921699,0.224267 0.907491,-0.0039 1.472243,-0.04803 1.789864,-0.139868 0.422621,-0.122196 0.464203,-0.121521 0.465875,0.0076 0.001,0.07795 0.05949,0.698578 0.129966,1.379168 0.164862,1.592177 0.164743,2.204539 -5.3e-4,2.761093 -0.163851,0.551748 -0.787169,1.257856 -1.059343,1.200048 l -6e-6,2e-6 z"
       id="path4338"
       inkscape:connector-curvature="0" />
  </g>
</svg>
