<?xml version="1.0" encoding="UTF-8" standalone="no"?>
<!-- Created with Inkscape (http://www.inkscape.org/) -->

<svg
   xmlns:dc="http://purl.org/dc/elements/1.1/"
   xmlns:cc="http://creativecommons.org/ns#"
   xmlns:rdf="http://www.w3.org/1999/02/22-rdf-syntax-ns#"
   xmlns:svg="http://www.w3.org/2000/svg"
   xmlns="http://www.w3.org/2000/svg"
   xmlns:sodipodi="http://sodipodi.sourceforge.net/DTD/sodipodi-0.dtd"
   xmlns:inkscape="http://www.inkscape.org/namespaces/inkscape"
   width="48"
   height="48"
   id="svg5157"
   version="1.1"
   inkscape:version="0.91 r"
   viewBox="0 0 48 48"
   sodipodi:docname="google-new.svg">
  <defs
     id="defs5159" />
  <sodipodi:namedview
     id="base"
     pagecolor="#ffffff"
     bordercolor="#666666"
     borderopacity="1.0"
     inkscape:pageopacity="0.0"
     inkscape:pageshadow="2"
     inkscape:zoom="14"
     inkscape:cx="32.820795"
     inkscape:cy="24.954762"
     inkscape:current-layer="layer1"
     showgrid="true"
     inkscape:grid-bbox="true"
     inkscape:document-units="px"
     inkscape:showpageshadow="false"
     inkscape:window-width="1317"
     inkscape:window-height="744"
     inkscape:window-x="49"
     inkscape:window-y="24"
     inkscape:window-maximized="1" />
  <metadata
     id="metadata5162">
    <rdf:RDF>
      <cc:Work
         rdf:about="">
        <dc:format>image/svg+xml</dc:format>
        <dc:type
           rdf:resource="http://purl.org/dc/dcmitype/StillImage" />
        <dc:title />
      </cc:Work>
    </rdf:RDF>
  </metadata>
  <g
     id="layer1"
     inkscape:label="Layer 1"
     inkscape:groupmode="layer">
    <path
       style="color:#000000;clip-rule:nonzero;display:inline;overflow:visible;visibility:visible;opacity:1;isolation:auto;mix-blend-mode:normal;color-interpolation:sRGB;color-interpolation-filters:linearRGB;solid-color:#000000;solid-opacity:1;fill:none;fill-opacity:1;fill-rule:evenodd;stroke:#ea4335;stroke-width:1px;stroke-linecap:butt;stroke-linejoin:miter;stroke-miterlimit:4;stroke-dasharray:none;stroke-dashoffset:0;stroke-opacity:1;color-rendering:auto;image-rendering:auto;shape-rendering:auto;text-rendering:auto;enable-background:accumulate"
       d="M 35.714285,11 C 35.314629,9.9321749 35.017271,8.0704042 34.186557,7.2571335 32.895989,5.9936649 28.777692,2.6446654 29.576434,3.5575138 32.616602,7.0319908 20.860645,4.9268203 17,6.8571428 c -0.805216,0.402608 -1.046697,1.8965768 -1.835501,3.1660082 -1.653011,2.660211 -3.529337,5.545619 -2.735928,3.833992 0.549202,-1.184796 0.821379,-3.27774 1,-4.4285716 1.001046,-6.4496028 7.705669,-5.8592971 14,-4.2857143 2.858221,0.7145552 4.676648,6.2949759 5.411863,8.3799539 0.285441,0.809473 0.286284,-0.363815 0.302423,-0.379954 0.496695,-0.496695 0.787051,-2.854469 0.428571,-3.5714284 C 32.933084,8.2947406 30.390068,7.7768984 28.857142,6.8571428 21.849639,2.6526407 19.792879,5.3447929 17.368866,8.7112903 16.205634,10.3268 14.627952,11.657763 13,13.285715 11.754146,14.53157 11.899346,9.3758165 13,8 16.063075,4.1711559 25.870577,2.9250334 29.714285,6 c 1.815946,1.4527569 5.449688,7.349064 4.714286,5.142857 -2.196415,-6.5892434 -12.835365,-6.3675958 -18,-5.4285713 C 13.541625,6.239185 9.8571424,14.505705 9.8571424,11.571429 9.8571424,4.468465 21.120645,3.2306914 26,4.8571428 c 3.200127,1.0667092 9.956662,9.0995202 7.571428,6.7142862 -17.81008,-17.8100808 -19.912207,1.714286 -21.857143,1.714286 -1.571428,0 -0.702764,-3.308758 0,-4.7142864 0.434809,-0.8696176 4.684499,-1.018845 5.428572,-1.1428572 1.41002,-0.2350034 2.875808,-0.3646267 4.150109,-0.5061251 3.804177,-0.4224159 7.032107,-0.3855171 10.992748,0.9346965 0.942693,0.314231 2.726391,4.0484222 2.428571,2.8571432 C 33.814259,7.1141788 24.652396,0.46570519 20.428571,3 c -3.00821,1.8049258 -6.958551,4.3963768 -8.285714,7.714286 -0.27455,0.686373 -0.571429,2.882104 -0.571429,2.142857 0,-13.34738439 20.748556,-5.8671059 23.714286,-3.1428573 0.610742,0.5610123 -6.956226,-6.7966578 -13,-5.2857143 C 19.803639,5.0490902 16.169958,5.2694538 14,6.5714286 13.498738,6.8721858 10.416355,11.036647 10.428571,11 12.036069,6.1775068 22.358286,2.0615512 27.142857,3.4285714 c 3.64647,1.0418487 7.714285,6.5993296 7.714285,6 0,-0.5675334 2.175348,-0.630292 1.780753,-1.0609066 C 36.17993,7.8678962 35.033996,6.3193654 33.98333,5.8944931 33.370716,5.6467618 32.523837,4.5689507 32.04694,4.51886 31.543611,4.4659929 31.419865,5.4440042 31.142857,5.2857143 17.876533,-2.2950343 9.0616094,9.0812477 9.5714284,8.5714286 13.916386,4.2264711 34.428571,3.4011251 34.428571,10.714286 c 0,0.564932 -5.168915,-2.5714289 -10.714286,-2.5714289 -0.307081,0 -0.616044,0.3915214 -0.92533,0.4553611 C 19.58731,9.2590696 16.351172,12.719786 14.81272,14.239893 14.195849,14.849408 14.037561,14.037561 14,14 11.68605,11.686033 23.339533,7.2964781 25.428571,7.7142857 c 0.498106,0.099621 1.337432,-0.1803384 1.907035,0.1105878 2.451707,1.2522157 4.913963,4.3176965 4.807251,4.2465555 C 25.236301,7.4670581 19.171123,10.348845 15.334655,12.473253 12.882206,13.831274 11.171528,14.457399 11.285714,14 c 0.788591,-3.158878 2.570006,-4.5490469 4.540678,-5.3840184 0.673759,-0.285471 1.536038,0.03319 2.28639,-0.063548 0.93722,-0.1208289 1.920825,-0.6876373 2.922532,-0.5941287 0.464252,0.043338 0.932392,-0.3207568 1.401606,-0.2390249 0.840592,0.1464222 1.184627,0.4966536 2.015916,0.7413737 6.458412,1.901267 12.647494,5.913868 9.975735,1.2536317 C 32.965747,7.162743 18.955948,4.7275012 16.142857,5.5714286 13.386139,6.3984439 11.412326,15.07788 10.714285,12.285715 9.6723024,8.117781 18.521654,2.3767161 26.973945,2.7434092 c 1.126251,0.048861 2.320349,-0.2612396 3.810654,0.2526762 1.591999,0.5489843 3.471603,1.9374716 4.332179,2.4375124 1.22698,0.7129412 2.068277,1.3950436 2.124498,3.3736659 C 37.278067,10.10205 35,9.9714731 35,11.714286 35,12.227159 34.791227,10.64837 34.428571,10.285714 32.689325,8.5464683 29.676302,8.4921564 27.714285,6.8571428 22.325066,2.3661266 12.449028,8.1223998 9.4285714,11.142857"
       id="path3352"
       inkscape:connector-curvature="0"
       sodipodi:nodetypes="csssssssssssssssssssssssssssssssssssssssssssssssssssssssssssssssssc" />
    <path
       style="color:#000000;clip-rule:nonzero;display:inline;overflow:visible;visibility:visible;opacity:1;isolation:auto;mix-blend-mode:normal;color-interpolation:sRGB;color-interpolation-filters:linearRGB;solid-color:#000000;solid-opacity:1;fill:none;fill-opacity:1;fill-rule:evenodd;stroke:#fbbc05;stroke-width:1px;stroke-linecap:butt;stroke-linejoin:miter;stroke-miterlimit:4;stroke-dasharray:none;stroke-dashoffset:0;stroke-opacity:1;color-rendering:auto;image-rendering:auto;shape-rendering:auto;text-rendering:auto;enable-background:accumulate"
       d="m 9.1428574,11.571429 c -1.3134085,0.07523 -1.4001664,1.414369 -2.2857146,1.857143 -8.4652738,4.232637 3.2857142,29.352364 3.2857142,23.142857 0,-0.99223 -5.4285713,-8.817386 -5.4285713,-14.571429 0,-6.154091 4.7195607,-8.620806 4.5714287,-8.571428 -3.3283594,1.109453 -9.15486587,10.842132 -5.7142859,15.142857 2.089317,2.611646 6.2100089,11.848589 4.7142858,8.857143 -3.4569534,-6.913907 -6.1428572,-9.77578 -6.1428572,-19 0,-3.266681 6.2415603,-9.384418 5.2857143,-8.428572 -10.6485831,10.648583 -0.9858322,32.414404 2.285714,29.142857 0.4754356,-0.475435 -4.7064311,-2.558338 -5.1428569,-3.285714 -2.662246,-4.437077 -2,-11.171951 -2,-16.285714 0,-3.904181 9.3491485,-11.8888605 5.8571429,-10.1428576 C -2.9698047,15.12776 5.7991185,40.343739 9.1428574,37 9.9501454,36.192712 -0.56853317,19.854248 10.428571,8.8571428 11.01105,8.2746634 6.7142857,14.575735 6.7142857,17.428572 c 0,5.82455 -2.1781921,14.178698 4.5714283,16.428571 C 14.643617,34.976444 9.0013214,27.148144 8.1428571,23.714286 6.3020366,16.351004 12.571428,12.66461 12.571428,13.285715 c 0,1.712639 -4.2714303,5.023813 -5.2857137,6.714285 -1.6346054,2.724342 1.5413871,14.315756 3.8571427,12 0.569194,-0.569194 -1.4285716,-6.504958 -1.4285716,-7.428571 0,-0.958958 -0.404492,-5.154897 0.7142856,-5.714286 0.353586,-0.176793 3.92793,-3.643498 3.857143,-3.714286 C 12.129088,12.986232 8.2400612,24.440368 8.4285714,25.571429 8.8114494,27.868698 12.857142,31.2699 12.857142,33 c 0,0.07104 -4.3905256,-4.914589 -5.4285706,-11.142857 -0.5031177,-3.018706 3.3024196,-7.590918 2.428571,-6.571428 -7.115005,8.300839 -7.5089622,12.34818 -0.428571,19.428571 0.354792,0.354792 2.2670156,-0.0374 2.1428566,-0.285714 C 8.6010414,28.487797 -0.88271698,21.454146 7,13.571429 12.794821,7.7766073 7.5232699,24.09308 8.2857143,27.142857 c 0.6190471,2.476191 7.1238267,6.142858 4.5714277,6.142858 -7.4547497,0 -7.3926723,-16.419781 -2.9999996,-19.714286"
       id="path4154"
       inkscape:connector-curvature="0" />
    <path
       style="color:#000000;clip-rule:nonzero;display:inline;overflow:visible;visibility:visible;opacity:1;isolation:auto;mix-blend-mode:normal;color-interpolation:sRGB;color-interpolation-filters:linearRGB;solid-color:#000000;solid-opacity:1;fill:none;fill-opacity:1;fill-rule:evenodd;stroke:#34a853;stroke-width:1px;stroke-linecap:butt;stroke-linejoin:miter;stroke-miterlimit:4;stroke-dasharray:none;stroke-dashoffset:0;stroke-opacity:1;color-rendering:auto;image-rendering:auto;shape-rendering:auto;text-rendering:auto;enable-background:accumulate"
       d="m 12.571428,34.428572 c -6.6946274,5.869012 24.04223,-0.642857 19.000001,-0.642857 -2.877326,0 -11.539306,3.589542 -16.285715,3.928571 0.155164,2.156245 -7.3953668,-2.790734 -6.4285716,-0.857143 1.9212766,3.842554 26.3468286,3.122228 24.2857146,-1 -0.401458,-0.802915 -12.709042,3.34076 -14,3.857143 -1.87048,0.748192 -8.531745,-3.30952 -8.428572,-3 1.22995,3.689848 12.824839,6.659009 16.428572,4.857143 2.257765,-1.128883 5.013974,-6.686337 6.142857,-4.428572 C 33.959482,38.490393 17.628736,44.019103 14.571428,43 12.732507,42.387026 8.0579202,38.915063 9.4285714,40.285715 c 3.2455346,3.245534 13.4418586,7.636213 18.7142856,5 3.025215,-1.512608 9.798322,-8.882359 8.285714,-5.857143 -5.101911,10.203821 -27.5888686,-0.177739 -26.8571426,1.285714 3.1314146,6.262829 23.2082196,5.297845 25.9999996,-0.285714 0.271053,-0.542105 1.891806,-1.285715 1.285714,-1.285715 -0.381332,0 -30.3915334,4.391535 -26.428571,0.428572 1.070142,-1.070142 7.700996,3.818106 9,4.142857 C 25.960037,45.347152 32.078343,44.064514 36.142857,40 36.684533,39.458324 29.773853,42.136239 23.285714,42.857143 17.082845,43.546351 9.8414584,38.285715 11,38.285715 c 1.559707,0 7.086922,2.681153 9.857142,3.142857 5.871599,0.9786 10.72181,-3.571429 13.857143,-3.571429 0.652353,0 -5.113366,2.45653 -8.285714,4.571429 -3.410832,2.273888 -15.733893,-3.12325 -15.857143,-3 C 7.8468964,42.153104 27.676752,46.466105 35,39.142857 c 0.629075,-0.629075 -13.905936,5.094065 -21.571429,-2.571428 -0.848606,-0.848606 12.576775,7.708939 19.714286,0.571428 0.303767,-0.303767 -15.556631,6.743882 -20,-2.142857 -0.285911,-0.571822 4.72272,2.142857 7.285714,2.142857 5.195987,0 10.333063,-2.237553 9.857143,-1.285714 -2.230828,4.461657 -22.1593095,-0.142857 -18.714286,-0.142857 2.80184,0 6.297509,2.788663 8.857143,3.428571 C 26.856944,40.749951 35.383348,37.461116 34,37 c -3.311247,-1.103748 -21,8.763993 -21,0 0,-2.794958 5.634184,0.401871 8.285714,1.285715 5.985109,1.995036 13.996901,-0.930121 13.571428,-1.142858 C 29.717833,34.573202 21.188725,40.022935 16,37.428572 c -0.492165,-0.246083 -2.098765,-3.714286 -1.714286,-3.714286 2.267382,0 6.409702,4.768194 11.285714,3.142857 2.00434,-0.668113 10.575402,-4.147718 5.142857,-1.285714 -3.218999,1.695851 -20.571428,3.437852 -20.571428,1.142857 0,-0.493925 4.477668,3.952677 9,4.857143 1.173302,0.23466 19.63892,0.63892 15.714285,-3.285714 C 33.57216,37.000732 18.664768,42.177504 12,38.428572"
       id="path4156"
       inkscape:connector-curvature="0"
       sodipodi:nodetypes="cscsssssssssssssssssssssssssssssssssssssssssc" />
    <path
       style="color:#000000;clip-rule:nonzero;display:inline;overflow:visible;visibility:visible;opacity:1;isolation:auto;mix-blend-mode:normal;color-interpolation:sRGB;color-interpolation-filters:linearRGB;solid-color:#000000;solid-opacity:1;fill:none;fill-opacity:1;fill-rule:evenodd;stroke:#4285f4;stroke-width:0.98312992px;stroke-linecap:butt;stroke-linejoin:miter;stroke-miterlimit:4;stroke-dasharray:none;stroke-dashoffset:0;stroke-opacity:1;color-rendering:auto;image-rendering:auto;shape-rendering:auto;text-rendering:auto;enable-background:accumulate"
       d="m 21.827019,18.706289 c 9.100938,4.083454 25.41074,-3.403661 22.074276,6.862787 -0.953906,2.935209 -2.067911,6.624122 -3.615793,9.541568 -0.518849,0.977927 -0.835316,1.841507 -1.61703,2.544744 -0.199236,0.179235 -0.09475,0.681997 -0.42371,0.781413 -8.700868,2.629533 9.444408,-16.388165 5.070426,-18.301352 -0.441458,-0.193095 -2.209437,-0.790096 -2.725034,-0.714286 -4.349542,0.639527 -14.298963,-0.01359 -18.763135,-0.714874 -0.169376,-0.02661 0.02802,2.48421 0,2.71652 -0.177687,1.47313 -1.333391,5.388029 0,6.147913 1.853405,1.056233 4.211179,0.736149 6.208391,0.571898 4.044774,-0.332643 8.158493,1.034751 8.001924,0.428925 -0.547863,-2.1199 -6.598873,5.785631 -4.828747,4.432216 2.416725,-1.847796 7.693796,-14.241213 1.379642,-2.859495 -0.220831,0.398064 -1.508543,2.814705 -1.655571,3.145445 -0.142094,0.319642 5.227705,-5.72444 3.173177,-7.720635 -1.752359,-1.702606 -4.669494,1.16395 -7.036175,1.572721 -1.819591,0.314279 -7.16851,-1.283855 -5.518569,-0.428924 4.897699,2.537786 11.54611,1.572723 16.9696,1.572723 l 2.621319,0 c -1.996644,0 -5.301067,-2.820825 -5.932461,-0.857849 -1.644463,5.112556 -2.984698,5.245371 0.137964,0.714873 0.852344,-1.236619 2.0535,-3.338049 1.517607,-5.004115 -0.502888,-1.563456 -14.526334,0.899395 -12.140852,-1.572722 3.157938,-3.272626 14.291871,0.714874 13.796423,0.714874 -1.556202,0 -15.865886,-1.568182 -15.865886,-3.002469 0,-2.972056 5.420734,2.173102 8.277853,2.43057 3.027635,0.272834 6.19687,0 9.243603,0 l 2.483356,0 c -1.156234,0 -19.972963,-2.353608 -20.28074,-1.715697 -1.032088,2.139142 18.842411,4.35006 20.004812,3.145444 0.469154,-0.486193 -22.479558,-0.145949 -19.177027,-1.286773 2.665317,-0.920704 11.162864,0.736589 14.348279,1.286773 0.484111,0.08362 5.656533,0.02073 5.656533,0.142975 0,3.484271 -6.715771,0.354556 -10.071388,0.571899 -0.983525,0.0637 -10.071388,1.025069 -10.071388,-0.571899 0,-0.0743 4.506277,1.572722 9.105638,1.572722 0.810362,0 11.554744,-0.576599 11.554744,-0.285832 0,0.383167 -7.577006,0.744387 -8.105638,0.857731 -3.288204,0.705025 -10.607249,4.036446 -12.554744,0 -1.360674,-2.820178 15.459708,7.569664 20.418705,2.43057 0.500135,-0.518299 -22.202665,-1.814321 -20.832598,-2.287595 4.664838,-1.611418 12.543939,0.428923 17.521456,0.428923 1.633063,0 2.567497,-2.407244 2.567497,-0.714874 0,2.956349 -3.44471,-0.255321 -6.29253,-0.428923 -3.814742,-0.232547 -7.920533,-0.28595 -11.72696,-0.28595 -0.374555,0 -1.411389,-0.417957 -1.379642,-0.428924 6.241208,-2.155957 21.70268,5.377732 19.866848,1.572722 -2.992108,-6.201547 -23.273599,-3.684315 -21.936311,-4.146267 6.668734,-2.303641 24.585278,2.602196 21.522418,-0.571899 -3.857163,-3.997245 -23.384933,2.502056 -20.556669,-0.428924 2.112079,-2.188784 22.902971,3.432336 20.280741,0.714874 -2.264191,-2.346421 -11.302116,-0.714874 -14.348279,-0.714874 -1.945138,0 -5.794497,-2.730653 -5.794497,-0.714874 0,6.481311 22.074275,1.80686 22.074275,3.145444 0,3.205881 -6.162776,0.567602 -9.243603,0.857849 -1.206762,0.11369 -12.489639,2.414498 -13.106601,-0.142975 -0.05608,-0.23247 15.491616,4.105205 17.521456,2.001646 2.368497,-2.454515 -6.683872,0.73083 -9.933423,1.572722 -1.22961,0.318566 -7.299992,-0.857848 -4.828748,-0.857848 5.535066,0 11.17047,0.333287 16.69367,0.714873 1.193042,0.08243 2.345393,-1.668038 2.345393,-0.428924 0,0.05752 -2.774054,0.346196 -3.173178,0.428924 -1.400033,0.290176 -7.303405,2.010661 -8.415818,0.857848 -1.542486,-1.598505 4.337851,-0.981536 6.208391,-2.14462 1.575391,-0.979564 0.914719,-4.914023 -0.137964,-6.004939 -0.17579,-0.182173 0.144818,5.619547 -0.27593,11.723928 -0.104773,1.520099 -2.483355,3.711937 -2.483355,3.431393 0,-4.685792 4.138926,-9.282176 4.138926,-14.297472 l 0,-1.143798 c 0,4.070788 0.59797,6.838116 0,10.866079 -1.157474,7.796818 -1.862435,-9.723458 3.124249,-9.723458 1.049697,0 0.324857,-0.713697 0.324857,-0.713697 0.57967,-0.122359 -1.539143,0.428102 -0.661649,0.497792 0.30924,0.02456 1.777676,0.435416 1.853263,0.951901 0.365592,2.498084 -1.492654,7.726713 -3.950898,10.274234 -2.052149,2.126678 1.783749,-13.062398 1.783749,-11.438682 0,3.223286 -3.199614,20.408552 -6.888426,16.585772 -0.744463,-0.7715 5.763502,-13.638025 2.897249,-12.152851 -1.548402,0.802318 -12.085166,14.525714 -2.207428,4.289241 5.228207,-5.418081 -5.650229,9.140584 -2.069463,3.574369 1.229697,-1.911533 3.255353,-2.899027 5.104676,-4.432217 0.315299,-0.261399 0.91854,-2.573544 1.103714,-2.573544 1.404534,0 -6.213449,11.42749 -6.622282,10.580128 -1.192024,-2.470627 5.104676,-9.012855 5.104676,-8.435508 0,3.465642 -4.431555,12.2266 -5.242641,8.864433 -0.567476,-2.352341 3.675773,-5.951853 4.828748,-7.86361 0.202587,-0.33591 1.584951,-4.432216 1.793535,-4.432216 1.72778,0 -6.227332,13.880326 -6.20839,13.868547 2.356357,-1.465159 8.277853,-10.763179 8.277853,-13.582598 0,-3.155747 -2.87475,16.036485 -5.24264,13.582598 -0.52403,-0.54306 1.774177,-2.666367 2.069463,-3.431392 1.347986,-3.492353 4.138926,-14.198535 4.138926,-10.437155 0,1.863165 -4.593798,12.353865 -4.690782,12.152852 -0.658708,-1.365259 7.612507,-10.639117 5.932461,-13.29665 -1.271156,-2.010741 0.01184,9.857076 -5.794497,13.868548 -1.066657,0.73693 1.216743,-2.387504 1.241677,-2.43057 1.298687,-2.243087 0.690945,-6.863951 2.483357,-8.721458 0.380618,-0.394443 -0.399974,1.037563 -0.551857,1.572722 -1.251565,4.40986 -2.431046,7.094525 -5.24264,10.008231 -0.940258,0.974404 4.625289,-10.008231 4.966711,-10.008231 3.784458,0 -8.75117,10.580129 -4.966711,10.580129 4.475512,0 2.88845,-7.849933 4.828747,-10.866079 0.897877,-1.395729 2.643004,-4.266952 2.766356,-5.656704 0.03497,-0.394044 -0.200763,0.436893 -0.659714,0.436893 -1.730472,0 -3.227354,13.040227 -4.267106,14.656496 -0.09201,0.143018 -0.59882,1.715344 -0.59882,1.715344 -3.370111,2.440239 2.733042,-15.060536 2.897248,-17.442917"
       id="path4162"
       inkscape:connector-curvature="0"
       sodipodi:nodetypes="cssssssscsssssssssscsssssssscssssssssssssssssssssssssssssssssssssssssssssssssssssssssssscsssssssssssssssscsc" />
  </g>
</svg>
