<?xml version="1.0" encoding="UTF-8" standalone="no"?>
<!-- Created with Inkscape (http://www.inkscape.org/) -->

<svg
   xmlns:dc="http://purl.org/dc/elements/1.1/"
   xmlns:cc="http://creativecommons.org/ns#"
   xmlns:rdf="http://www.w3.org/1999/02/22-rdf-syntax-ns#"
   xmlns:svg="http://www.w3.org/2000/svg"
   xmlns="http://www.w3.org/2000/svg"
   xmlns:sodipodi="http://sodipodi.sourceforge.net/DTD/sodipodi-0.dtd"
   xmlns:inkscape="http://www.inkscape.org/namespaces/inkscape"
   width="48"
   height="48"
   id="svg4254"
   version="1.1"
   inkscape:version="0.91 r"
   viewBox="0 0 48 48"
   sodipodi:docname="microsoft.svg">
  <defs
     id="defs4256" />
  <sodipodi:namedview
     id="base"
     pagecolor="#ffffff"
     bordercolor="#666666"
     borderopacity="1.0"
     inkscape:pageopacity="0.0"
     inkscape:pageshadow="2"
     inkscape:zoom="9.8994949"
     inkscape:cx="24"
     inkscape:cy="22.613482"
     inkscape:current-layer="layer1"
     showgrid="true"
     inkscape:grid-bbox="true"
     inkscape:document-units="px"
     inkscape:showpageshadow="false"
     inkscape:window-width="1317"
     inkscape:window-height="744"
     inkscape:window-x="49"
     inkscape:window-y="24"
     inkscape:window-maximized="1" />
  <metadata
     id="metadata4259">
    <rdf:RDF>
      <cc:Work
         rdf:about="">
        <dc:format>image/svg+xml</dc:format>
        <dc:type
           rdf:resource="http://purl.org/dc/dcmitype/StillImage" />
        <dc:title />
      </cc:Work>
    </rdf:RDF>
  </metadata>
  <g
     id="layer1"
     inkscape:label="Layer 1"
     inkscape:groupmode="layer">
    <path
       d="m 20.871308,41.872617 c -1.585561,0.973336 -3.851037,1.269576 -6.314717,1.262517 -0.90492,0 -1.834528,-0.03525 -2.765544,-0.08463 0.186907,-0.0078 0.371702,-0.01419 0.557199,-0.02109 0.455635,0.0142 0.911267,0.0283 1.362674,0.0283 2.537023,-0.0078 4.973901,-0.268022 6.862037,-1.417691 1.138382,-0.754685 1.886714,-2.412178 2.287344,-4.224851 -0.326564,2.003101 -1.141912,4.006203 -1.988993,4.45761 z m 0,2.821269 c -1.586266,0.973336 -3.850332,1.262519 -6.31542,1.262519 -2.735223,0 -5.6897926,-0.345608 -8.2486859,-0.345608 -0.5325155,0 -1.0481019,0.01417 -1.5439411,0.04929 -0.024694,-0.479617 -0.061355,-1.079143 -0.1022684,-1.749186 0.5162876,-0.04238 1.0622051,-0.07058 1.6455039,-0.07058 2.4686098,0 5.4337655,0.345607 8.2500945,0.345607 2.538441,-0.0078 4.974608,-0.275075 6.861331,-1.417701 0.451404,-0.29623 0.840038,-0.74058 1.172244,-1.276624 -0.405562,1.52349 -1.050925,2.842429 -1.718858,3.202144 z M 5.553219,42.803636 c -0.2687282,0.0078 -0.5318134,0.02107 -0.789958,0.04239 -0.00113,-0.02828 -0.00259,-0.05643 -0.00343,-0.08466 0.2616739,0.01419 0.5261685,0.0283 0.7934809,0.04238 z M 5.462228,41.668075 c -0.2595564,0 -0.5141748,0 -0.7659718,0.0077 -0.00206,-0.02108 -0.00344,-0.04929 -0.00413,-0.07756 0.6785153,0.02107 1.3852414,0.05643 2.1117187,0.09874 -0.4549283,-0.02109 -0.9056244,-0.02827 -1.341514,-0.02827 z m 8.221886,0.211589 c -0.433062,0.04929 -0.880235,0.08467 -1.336576,0.1058 -0.6369,-0.02108 -1.27944,-0.05643 -1.920578,-0.09168 0.559317,0.02109 1.119338,0.03526 1.672305,0.03526 0.534632,0 1.063622,-0.01418 1.584849,-0.0493 z m -9.102826,-2.165319 0.025347,0 c 0.6065716,-0.07059 1.2738045,-0.09874 1.9840587,-0.09874 2.4671957,0 5.4309443,0.338554 8.2472783,0.345608 1.165181,-0.0078 2.305683,-0.06344 3.385523,-0.23981 -1.57356,0.888704 -3.752995,1.163774 -6.12427,1.163774 -2.4615582,0 -5.1015637,-0.27507 -7.4700169,-0.331503 -0.016187,-0.275071 -0.031024,-0.550138 -0.047959,-0.839322 z m 15.590337,-8.611926 c 0.190437,0.380871 0.344909,1.001546 0.376641,1.763292 -0.135421,-0.754685 -0.411197,-1.375367 -0.925376,-1.791508 0.181967,0.0077 0.365358,0.02107 0.548735,0.02825 z m 1.200452,7.610376 c -0.380168,0.994504 -0.85696,1.770349 -1.345743,2.03132 -0.531812,0.331496 -1.146143,0.571303 -1.81267,0.761734 0.395685,-0.303286 0.740587,-0.719421 1.036817,-1.213144 0.322327,-0.27507 0.611511,-0.620675 0.865427,-1.022712 0.43941,-0.15517 0.857661,-0.338551 1.256169,-0.557198 z m 0.231345,-5.430944 c -0.009,-0.500779 -0.04173,-0.980397 -0.112849,-1.424743 0.337846,0.190432 0.702495,1.213149 0.676396,2.553247 0.01421,0.754695 -0.07974,1.594023 -0.248979,2.412189 -0.242626,0.387917 -0.502185,0.684159 -0.765266,0.825222 -0.11144,0.0706 -0.234163,0.126957 -0.352661,0.190432 0.519115,-1.410637 0.780084,-3.082233 0.803359,-4.556347 z m 0.253915,-2.165322 -0.377343,0.670046 c -0.04014,-0.232755 -0.09384,-0.451399 -0.160816,-0.662996 0.179152,0 0.359005,0 0.538159,-0.0078 z M 4.1432847,24.930886 c -0.019063,0 -0.03739,0 -0.056422,0 0.018324,0 0.038802,-0.0077 0.058539,-0.0077 -0.00206,0 -0.00206,0.0077 -0.00259,0.0077 z M 2.881474,28.676129 c -0.2616767,1.474106 -0.3449008,3.27267 -0.3463075,5.099441 0,2.468611 0.1579882,5.000704 0.26661,6.792209 -0.167166,0.0078 -0.3336184,0.01417 -0.4951372,0.02109 -0.089577,-1.742127 -0.3336146,-4.894894 -0.3336146,-7.941866 0,-1.791507 0.08605,-3.540698 0.3300849,-4.916065 C 2.4039735,27.117312 2.5506755,26.595376 2.7164308,26.179244 2.9915053,26.073433 3.38366,26.009963 3.8512849,25.981751 3.3519206,26.644745 3.0874277,27.582819 2.881474,28.676067 Z m -1.1108767,13.02016 0.098042,-0.0078 c 0.315272,-0.04237 0.6481867,-0.06344 0.993789,-0.07755 0.00206,0.01419 0.00287,0.03525 0.00408,0.05644 -0.3752325,0 -0.7391755,0.01417 -1.0960665,0.02828 z M 4.9494641,26.341522 c 0.022589,-0.01419 0.045108,-0.03524 0.066313,-0.04933 0.153052,-0.09873 0.3928607,-0.176326 0.6968514,-0.232749 0.2426308,0.02108 0.4901957,0.04929 0.7419976,0.07756 -0.4231966,0.07057 -0.8097076,0.19043 -1.1461453,0.394978 -0.1586934,0.09874 -0.2969367,0.232751 -0.4267138,0.36676 0.020482,-0.190437 0.043714,-0.373809 0.067699,-0.557205 z m 0.2898873,-1.495271 c 0.4408207,0.0078 0.9204368,0.03527 1.4212111,0.08466 -0.3399581,0.0077 -0.6622924,0.02825 -0.9669902,0.07059 -0.1636324,-0.01419 -0.3237387,-0.02826 -0.4831377,-0.03527 0.0099,-0.04237 0.019056,-0.07756 0.028913,-0.119902 z M 14.6102,25.784322 c -0.04439,0 -0.08959,-0.0078 -0.13401,-0.0078 l -0.01832,0 c -0.286362,0.0078 -0.631259,-0.02107 -1.017772,-0.06342 0.384392,0.0142 0.77585,0.03528 1.170122,0.07059 z m 9.371551,8.562561 c 0.226408,-1.008609 0.344904,-2.066586 0.360417,-3.032875 -0.02677,-1.509377 -0.234163,-2.856533 -1.248409,-3.491318 l -0.513471,0.909859 c 0.347721,0.134013 0.740584,1.191989 0.713781,2.581459 0.0057,0.352667 -0.01488,0.726486 -0.05089,1.107355 -0.110733,-0.119909 -0.233467,-0.232753 -0.374527,-0.331498 -0.15376,-0.402036 -0.375927,-0.740585 -0.689096,-1.001553 0.146001,-0.0142 0.291297,-0.02108 0.437297,-0.03524 l -0.125514,-1.043891 c -0.433774,0.05643 -0.883059,0.0706 -1.342928,0.0706 -0.144589,0.0077 -0.292703,0 -0.440114,-0.0078 -0.104373,-0.105699 -0.221458,-0.197394 -0.353348,-0.282029 l -0.147398,0.268054 c -1.581309,-0.08463 -3.249386,-0.331498 -4.885017,-0.331498 -9.4e-4,0 -9.4e-4,0 -9.4e-4,0 -0.01196,0 -0.0191,0 -0.0191,0 -1.629284,0.0077 -5.151637,-0.853431 -7.670332,-0.853431 -0.9020946,0 -1.695579,0.09168 -2.3240182,0.472559 -0.1967822,0.126963 -0.3660616,0.289184 -0.5191145,0.472564 0.2383999,-1.290727 0.6721701,-2.186482 1.0720866,-2.398075 0.3046947,-0.197489 0.9578194,-0.32445 1.7717524,-0.317393 2.2922825,-0.0077 5.6806317,0.818163 7.5800507,0.853434 l 0.01759,0.0077 0.106502,-0.0077 c 1.833129,0 3.84187,0.352664 5.811118,0.359705 0.491607,0 0.981799,-0.02106 1.468471,-0.08465 L 22.491123,27.19455 c -0.433072,0.04933 -0.882352,0.07058 -1.342928,0.07058 -0.743404,0 -1.516436,-0.05647 -2.300748,-0.126948 0.01906,0 0.03741,0 0.0572,0 0.466919,0.02825 0.934545,0.04932 1.400759,0.04932 0.490902,0 0.981095,-0.02107 1.465655,-0.07757 l -0.124087,-1.043681 c -0.434473,0.04932 -0.882347,0.07058 -1.341512,0.07058 -0.390039,0 -0.78854,-0.01421 -1.189869,-0.04237 l -0.0046,-0.02827 c -0.0706,0.0078 -0.143884,0.01419 -0.214413,0.02106 -0.112856,-0.01415 -0.227819,-0.02106 -0.342082,-0.02827 0.04658,0 0.09314,0 0.138245,0 0.491608,0 0.981801,-0.02107 1.466356,-0.07757 l -0.123418,-1.043859 c -0.435186,0.04934 -0.883761,0.07757 -1.34292,0.07757 -1.843704,0 -3.853861,-0.359715 -5.815347,-0.359715 -0.0097,0 -0.01978,0 -0.031,0 -1.531938,0.0076 -4.7383114,-0.74764 -7.21045,-0.846383 0.1622234,-0.310338 0.3371424,-0.521937 0.5057121,-0.613628 0.3046971,-0.204536 0.9578205,-0.32444 1.7724659,-0.317396 2.292282,-0.0077 5.681334,0.818176 7.580047,0.853442 l 0.01557,0 0.106503,0 c 1.833121,0 3.843988,0.35266 5.81534,0.359709 0.491611,0 0.980399,-0.02825 1.465655,-0.08465 l -0.123318,-1.036732 c -0.43589,0.04929 -0.883762,0.07059 -1.342217,0.07059 -1.847231,0 -3.858793,-0.352652 -5.821694,-0.359709 -0.01615,0 -0.02533,0 -0.02533,0 -1.629284,0.0078 -5.150933,-0.846387 -7.6703251,-0.853437 -0.9021043,0.0078 -1.6962904,0.09873 -2.3240265,0.472555 -0.5169973,0.345606 -0.8611892,0.874602 -1.1165152,1.530546 -0.6129219,0.04929 -1.1630725,0.169277 -1.6222325,0.444347 -0.4126095,0.26802 -0.7144862,0.662999 -0.949356,1.149661 C 0.99943781,26.037953 0.61856243,27.215839 0.3463112,28.675843 0.0846389,30.149955 0,31.948514 0,33.775289 c 0,3.456055 0.30963618,7.032018 0.3597099,8.534343 l 0.0190644,0.571309 0.56566373,-0.07061 C 1.5446878,42.739911 2.2055734,42.718771 2.908777,42.711691 l 0.00494,0.169283 0.5663714,-0.0706 c 0.021155,0 0.045109,0 0.067023,0 0.081821,1.474124 0.1685702,2.708421 0.1939655,3.441966 l 0.019767,0.571291 0.5656632,-0.06344 C 4.9309643,46.682631 5.59749,46.654398 6.3070389,46.661451 8.7756468,46.653751 11.740098,47 14.555727,47 c 2.537732,0 4.975308,-0.268005 6.862034,-1.417688 1.770378,-1.170818 2.599832,-4.535182 2.64215,-7.229492 -0.0078,-0.465514 -0.03743,-0.909867 -0.09944,-1.325998 0.05921,-0.50783 0.09243,-1.008606 0.100153,-1.488224 -0.0079,-0.416128 -0.03166,-0.818159 -0.07906,-1.191981 z m -1.402875,-5.614334 0.0022,0 -0.0034,0 0.0012,0"
       style="fill:#00adef;fill-opacity:1;fill-rule:nonzero;stroke:none"
       id="path424"
       inkscape:connector-curvature="0" />
    <path
       d="m 1.9927745,17.255448 c 0.027489,0.176324 0.054985,0.35266 0.098033,0.521933 0.014115,0.275077 0.026768,0.557205 0.049378,0.832275 C 2.0922225,18.398063 2.0569595,18.172358 2.0329745,17.9255 2.0146515,17.699799 2.0054825,17.481152 1.9927805,17.255448 Z M 3.7292653,5.6811841 C 3.6530981,5.80109 3.5959612,5.9492096 3.5317731,6.0761672 c 0.035953,-0.1199082 0.076173,-0.232758 0.1184976,-0.338553 0.02538,-0.021152 0.052185,-0.042319 0.078992,-0.056418 z M 3.8371738,18.99053 C 3.6862405,18.62376 3.5882042,18.207626 3.5409425,17.706849 3.5134545,17.368295 3.4936865,17.022691 3.4795855,16.67709 c 0.050795,0.409081 0.139654,0.789953 0.2722512,1.135557 0.1311909,0.655948 0.3794579,1.21315 0.7264831,1.692761 C 4.2392044,19.343189 4.0212693,19.173911 3.8371756,18.99053 Z M 23.275026,3.2055228 l -0.206662,0 c -0.0034,-0.2468637 -0.01,-0.5007756 -0.01,-0.7546931 l -0.969102,0 c 0,0.4655143 0.01191,0.9380783 0.01693,1.4035852 l -0.543798,0 C 21.558303,3.529969 21.549747,3.2055228 21.549747,2.888126 l -0.968401,0 c 0,0.3879267 0.01136,0.7899599 0.01486,1.1849374 l -0.511356,0 0.03096,-0.5924682 c 0.124839,0 0.249679,-0.00692 0.37452,-0.00692 0,0 0.01063,0 0.01063,0 l 0.03451,-0.634789 c 0.344199,0 0.689098,-0.00691 1.033291,-0.00691 l 0.01,0 0.05157,-0.9733395 c -0.02967,0 -0.05001,0 -0.06142,0 -0.06415,0 -0.129774,0.00693 -0.194664,0.00693 l 0.04011,-0.7546893 0,-0.00717 c -0.02968,0 -0.05088,0 -0.06143,0 -4.39907,0 -8.826352,0.359712 -13.1527679,1.1778781 C 7.5625855,2.4014456 7.0018605,2.5566179 6.5039055,2.7541065 5.2484383,3.0080244 4.2680479,3.3818395 3.5606142,4.0942091 3.2686128,4.3974959 3.0499647,4.7501569 2.8665825,5.1451329 2.8129686,5.1945046 2.7495003,5.2297739 2.6987135,5.2861948 1.95602,6.0408881 1.5941917,7.0988664 1.4510124,8.5306606 1.2196768,10.844096 0.97351902,13.228068 0.97351902,15.619096 c 0,0.797004 0.0261049,1.594017 0.0916963,2.391025 0.1467043,2.045418 1.2928437,3.230364 2.9545686,4.041465 0.5473314,0.402036 1.1863449,0.733532 1.9008348,1.008608 0.6037484,0.239814 1.2075034,0.253912 1.7534177,0.253912 0.1340097,0 0.261674,-0.0078 0.3829864,-0.0078 0.2701379,0 0.5226416,0.0078 0.7532787,0.03527 1.9798245,0.239813 3.9025205,0.239813 5.8097005,0.437294 0.971226,0.09168 2.426294,0.62774 3.781209,0.634792 0.361829,0 0.721535,-0.04237 1.065734,-0.148115 0.737761,-0.246864 1.135557,-0.839326 1.374659,-1.481175 0.04511,-0.01418 0.09094,-0.01418 0.134012,-0.02827 0.954294,-0.317342 1.345753,-1.213092 1.550996,-2.059474 0.208781,-0.860413 0.256744,-1.791436 0.357602,-2.419164 0.387921,-2.496819 0.48314,-5.050075 0.484549,-7.596269 -0.0021,-2.5179906 -0.09382,-5.0289174 -0.09382,-7.4763742"
       style="fill:#f1511b;fill-opacity:1;fill-rule:nonzero;stroke:none"
       id="path428"
       inkscape:connector-curvature="0" />
    <path
       d="m 41.071038,26.486307 c 0.186201,-0.528985 0.406964,-1.065026 0.648888,-1.601072 l 0.418961,-0.06341 0.02828,-0.465522 c 0.01061,-0.19748 0.03527,-0.394969 0.06492,-0.592457 0.03527,-0.07758 0.06988,-0.155171 0.10439,-0.232759 0.658058,-0.02108 1.294968,-0.07059 1.904355,-0.148116 -0.309633,0.74058 -0.584709,1.516436 -0.756104,2.334605 -0.04236,0.211586 -0.07756,0.423184 -0.103675,0.641842 -0.717308,0.08465 -1.495976,0.119897 -2.30992,0.126948 z m -1.593315,1.650443 c -2.951044,0.352665 -6.922693,-0.112848 -10.209469,0.04929 -1.80491,0.112862 -2.82198,0.60658 -3.238111,0.465516 -0.263086,-0.04932 -0.617159,-0.275065 -1.215974,-1.311881 -0.690502,-1.121455 -0.714479,-3.561857 -0.383695,-6.326699 0.04505,0.09874 0.08822,0.197493 0.138955,0.296236 0.06492,0.112853 0.130479,0.218641 0.19537,0.324442 0.117791,0.740586 0.313868,1.403583 0.61716,1.960785 0.629843,1.100293 1.207493,1.699814 1.991805,1.862041 0.0142,0.0077 0.02825,0.0077 0.04172,0.0077 0.08674,0.239805 0.18127,0.465505 0.295533,0.677103 0.63196,1.100295 1.206797,1.699816 1.991106,1.862038 1.133452,0.176325 1.9234,-0.380869 3.528001,-0.437292 1.925515,-0.1058 4.157137,0.03526 6.328814,0.07756 -0.03026,0.162216 -0.06072,0.324435 -0.0811,0.493714 z M 27.87243,3.8597242 C 27.84836,3.9514132 27.8231,4.0501596 27.79911,4.1489016 L 27.526853,4.0854265 C 27.285622,5.1010833 26.865252,6.6809938 26.416669,8.521874 L 26.269264,8.486616 c 0.394268,-1.7421319 0.81041,-3.3784722 1.143318,-4.6903632 0.148118,0.021158 0.307517,0.042329 0.459865,0.063479 z m 18.922258,8.4920238 c 0.08602,0.698267 0.04237,1.354209 -0.08891,2.010159 -0.05852,0.310337 -0.141058,0.613622 -0.238394,0.916912 -0.31457,-0.134014 -0.624198,-0.282131 -0.926783,-0.444352 0.16857,-0.479615 0.323031,-0.96629 0.428831,-1.474117 0.08529,-0.416134 0.138239,-0.853434 0.150938,-1.297784 0.221467,0.105803 0.445053,0.204545 0.674283,0.289182 z m -18.647886,10.68556 c 0.204535,-0.04238 0.421073,-0.09168 0.650296,-0.141067 0.43589,0.564257 0.884468,0.902811 1.435328,1.015654 l 0,0 c -0.856259,0.09875 -1.496682,0.268027 -1.953025,0.366772 -0.06765,-0.373814 -0.11144,-0.789958 -0.132599,-1.241359 z m -1.586267,0.13401 c 0.148122,0.02107 0.288481,0.03527 0.426723,0.03527 0.01757,0.260967 0.03941,0.521933 0.07332,0.761736 -0.165039,-0.169274 -0.359712,-0.437295 -0.592466,-0.82522 0.03171,0.01416 0.0614,0.02107 0.09243,0.02823 z m 3.43067,-19.043574 c -0.07834,0.3032865 -0.162223,0.6347838 -0.24968,0.9803894 -0.330806,-0.042331 -0.648191,-0.084646 -0.955709,-0.1199003 0.08466,-0.3385503 0.167864,-0.670054 0.247566,-0.9874462 0.3195,0.04233 0.637607,0.084643 0.957823,0.1269571 z m 14.863157,8.865845 -0.209485,-0.07056 c -0.113554,-0.03526 -0.224992,-0.08464 -0.337848,-0.126962 0.0359,-0.557195 0.01691,-1.121454 -0.09167,-1.713918 l -0.02609,-0.14106 c 0.246868,0.16928 0.498663,0.32445 0.753985,0.479618 0.03942,0.536044 0.0053,1.057978 -0.08891,1.572859 z m -1.635632,4.309489 -0.147415,-0.0493 c -0.03592,-0.0142 -0.07059,-0.02823 -0.106501,-0.04237 0.30752,-0.677106 0.60375,-1.361265 0.846381,-2.080683 0.0458,0.02822 0.08958,0.05647 0.135413,0.09168 -0.02252,0.225699 -0.05287,0.458456 -0.09873,0.684156 -0.0035,0.0075 -0.0057,0.0211 -0.009,0.02824 -0.203132,0.451406 -0.413321,0.90281 -0.620679,1.368317 z m -9.459018,6.171534 c 2.210471,-0.119912 4.823672,0.07757 7.286635,0.07757 -0.04012,0.09168 -0.07975,0.176329 -0.119901,0.268026 -2.728171,0.303275 -6.285081,-0.05645 -9.378605,0.02106 0.614329,-0.134008 1.272387,-0.331503 2.211871,-0.366764 z m -2.461559,-0.775858 c -0.386511,0.08466 -0.665817,0.13401 -0.837206,0.07756 -0.04728,-0.0077 -0.09945,-0.02825 -0.154471,-0.04932 0.324451,-0.01418 0.653131,-0.02828 0.991677,-0.02828 z M 28.689894,9.5022633 C 28.375322,9.4599385 28.065687,9.4246809 27.765221,9.3894136 28.001502,8.2538521 28.256825,7.153555 28.506508,6.116739 c 0.310342,0.042337 0.625611,0.084642 0.950065,0.1269617 -0.248974,1.0015479 -0.514174,2.1088959 -0.766679,3.2585626 z m 3.709262,-2.8353758 c 0.699674,0.1410614 1.331636,0.3244486 1.817606,0.5501461 0.664415,0.3032889 1.302722,0.7053195 1.93116,1.1567239 C 35.769163,8.2609058 35.370662,8.1621624 34.958051,8.0775244 33.589732,7.80245 32.073298,7.6684396 30.840397,7.4991611 30.894008,7.2805162 30.942678,7.0830227 30.987815,6.8996423 L 30.517369,6.7867932 c 0.03449,-0.1340096 0.06695,-0.2680201 0.09944,-0.40203 0.610804,0.077582 1.21738,0.1692738 1.782338,0.2821243 z m 0.738468,3.8298755 c -0.61786,-0.28918 -1.330228,-0.486668 -2.081395,-0.641839 -0.254619,-0.049351 -0.517696,-0.091683 -0.77796,-0.1340108 0.0959,-0.3808714 0.189727,-0.7476373 0.277188,-1.0932404 1.312599,0.1974869 2.850892,0.3173904 4.173367,0.5854109 0.698261,0.1410655 1.330924,0.324446 1.8176,0.5501476 2.183666,1.0015527 4.091551,3.0046507 6.282973,4.6692047 -0.235577,0.768795 -0.575545,1.537588 -0.935256,2.320489 -3.00253,-1.523482 -5.472559,-4.683303 -8.756517,-6.256162 z m 8.196492,11.898707 0.009,-0.134014 c 0.01559,0 0.03256,0 0.04859,0 -0.01263,0.04237 -0.02253,0.09168 -0.03454,0.134014 -0.0077,0 -0.01487,0 -0.02253,0 z M 27.538109,16.759979 c -0.172098,0.987446 -0.319513,1.960788 -0.423894,2.89886 -0.629149,-1.862039 -0.289885,-5.550847 0.417551,-9.133865 0.301166,0.04236 0.606563,0.07758 0.915495,0.11285 -0.01978,0.09875 -0.04011,0.19749 -0.0607,0.296237 -0.385101,1.981943 -0.723653,3.999151 -0.848494,5.825918 z m 14.66708,3.378477 c -0.134015,0.30328 -0.263799,0.60657 -0.387221,0.916908 -0.106508,0.0077 -0.219352,0.01418 -0.327975,0.02826 0.1728,-0.874602 0.508537,-1.72803 0.892923,-2.595568 0.02674,0.331499 0.02536,0.662997 -0.0039,0.980396 -0.06696,0.218646 -0.12131,0.444349 -0.174919,0.67005 z M 33.060042,4.7907435 c 0.119899,0.042337 0.237694,0.091687 0.344895,0.1410606 3.238822,1.4882227 5.864715,5.1770349 9.717871,6.6793619 0.02748,0.218642 0.03884,0.437294 0.0417,0.648889 C 40.295932,10.687199 37.883746,7.6896009 34.71194,6.1661149 34.092671,5.876932 33.381704,5.6794433 32.629838,5.5313267 32.069113,5.4184789 31.482996,5.333838 30.90181,5.2562514 30.9646,5.0093915 31.025944,4.7695853 31.084487,4.5368275 c 0.622796,0.091687 1.297082,0.1692773 1.975592,0.253916 z M 25.872147,21.203483 c -0.06834,-0.592467 -0.08601,-1.269577 -0.06491,-2.003097 0.121314,0.606566 0.301872,1.149665 0.557206,1.622224 0.203124,0.352663 0.400611,0.648894 0.601629,0.902806 -0.004,0.105803 -0.0078,0.225704 -0.0097,0.331499 -0.06201,0 -0.119192,-0.0078 -0.166455,-0.02107 -0.216508,-0.04238 -0.495108,-0.20454 -0.918305,-0.832275 z M 43.531884,10.46855 c 0.05155,0.04237 0.105798,0.07757 0.15799,0.11285 -2.667503,-0.9451259 -4.843411,-3.3290984 -7.347994,-5.1840835 0.267317,0.084643 0.517701,0.1692756 0.733534,0.2750754 0.16433,0.077586 0.325854,0.1622211 0.486665,0.2468599 1.899418,1.4458978 3.741005,3.3149939 5.969805,4.5492982 z M 33.171478,26.401673 c -1.804909,0.119899 -2.822676,0.606578 -3.23952,0.465508 -0.261674,-0.04933 -0.615743,-0.275069 -1.214558,-1.311887 -0.03026,-0.04933 -0.05497,-0.105801 -0.08325,-0.162225 0.629145,-0.126957 1.299901,-0.338548 2.266892,-0.373826 2.885452,-0.15516 6.465643,0.239817 9.489336,0.01421 -0.199601,0.472557 -0.387221,0.952177 -0.542385,1.45296 -2.210464,-0.03528 -4.58104,-0.183385 -6.676538,-0.08468 z m 10.738468,-4.140217 c -0.344911,0.04237 -0.706025,0.07061 -1.074909,0.09168 0.03528,-0.09168 0.0634,-0.183372 0.09663,-0.275071 l 0.189726,-0.02826 0.02826,-0.46551 c 0.0053,-0.06341 0.01334,-0.126954 0.01909,-0.183381 0.09312,-0.310338 0.177742,-0.620678 0.244044,-0.938071 0.01694,-0.08466 0.02674,-0.16927 0.04086,-0.253911 0.560719,-1.227256 1.155306,-2.482717 1.47552,-3.858088 0.06414,-0.141063 0.126252,-0.289181 0.18902,-0.437295 0.30752,0.162221 0.622095,0.310338 0.944422,0.444351 -0.684861,1.650447 -1.646209,3.329097 -2.049654,5.268716 -0.0417,0.204549 -0.07681,0.42319 -0.10297,0.634785 z m 0.713771,3.681759 c 0.460573,-2.369864 2.132885,-4.584566 2.691496,-7.257717 0.162929,-0.804059 0.205949,-1.657497 0.07191,-2.5462 0.181273,-0.500769 0.344905,-1.015654 0.457053,-1.544638 0.175623,-0.874595 0.220761,-1.798566 0.0417,-2.771897 l -0.0615,-0.331501 -0.320917,-0.112851 c -0.509254,-0.169278 -0.99804,-0.394981 -1.475547,-0.655946 -0.0076,-0.04237 -0.009,-0.08466 -0.01616,-0.126959 l -0.06137,-0.331497 -0.320217,-0.112853 C 45.140727,9.9889348 44.671698,9.7702849 44.213242,9.5234242 42.253865,8.049312 40.393239,6.1661149 38.182775,4.9388629 37.394931,4.3534469 36.57465,3.8174054 35.695824,3.3942146 35.077262,3.1050321 34.363481,2.9075463 33.613022,2.7594261 32.244006,2.4843558 30.728271,2.3503456 29.49397,2.1810691 29.548947,1.9624205 29.59624,1.7649318 29.641378,1.581547 l -1.12921,-0.2680173 c -0.09383,0.3879243 -0.214423,0.8675394 -0.351252,1.4106345 -0.154462,-0.021147 -0.315979,-0.042343 -0.462685,-0.056418 0.05362,-0.2186464 0.102265,-0.4161317 0.145294,-0.5995234 l -1.128511,-0.2680177 -0.0014,0 c -0.401873,1.699815 -1.306791,4.9724902 -1.998706,8.3932789 -0.495136,2.546194 -0.914799,5.148819 -0.898578,7.342358 -0.759625,4.055571 -1.2477,8.125252 -0.009,10.382271 0.629843,1.100292 1.2075,1.706868 1.991109,1.86909 1.133447,0.176332 1.922687,-0.380873 3.527295,-0.444352 3.308638,-0.176327 7.52785,0.373823 10.774427,-0.119898 l 0.463397,-0.07059 0.02826,-0.465508 c 0.01975,-0.324451 0.06342,-0.641837 0.126954,-0.959233 0.0057,-0.02826 0.01486,-0.05647 0.02109,-0.07756 1.142615,-0.0077 2.252785,-0.05642 3.264915,-0.211593 l 0.461983,-0.0706 0.02828,-0.465505 c 0.02048,-0.324457 0.06414,-0.641839 0.12766,-0.95923"
       style="fill:#80cc28;fill-opacity:1;fill-rule:nonzero;stroke:none"
       id="path422"
       inkscape:connector-curvature="0" />
    <path
       d="m 43.470375,41.671653 c -0.04508,0 -0.09024,0 -0.13612,0 -0.282835,0 -0.567787,0.01419 -0.854849,0.02827 0.488784,-1.269571 0.914094,-2.680205 1.120046,-4.069679 0.631964,-1.713923 1.129916,-3.646494 1.134145,-5.409788 0.0053,-0.338557 -0.01417,-0.663003 -0.05361,-0.987441 0.619971,0.747634 0.854138,1.770344 0.875295,2.990539 0.0053,2.426297 -1.093948,5.43095 -2.084923,7.448156 z m -2.753558,1.749188 c -0.0466,0 -0.09168,0 -0.136835,0 -3.190851,0.01417 -6.665245,1.199037 -9.72139,1.191987 -0.996608,0 -1.941739,-0.119899 -2.821268,-0.437299 -0.593166,-0.211595 -1.018478,-0.571304 -1.340102,-1.05797 0.940186,0.303282 1.917048,0.423183 2.909438,0.423183 0.191137,0 0.383693,-0.0078 0.576946,-0.01417 0.141065,0 0.282127,0.01417 0.424601,0.01417 0.205954,0 0.412612,-0.0078 0.620677,-0.01417 0.775852,0.190433 1.575684,0.260966 2.383977,0.260966 2.453797,0 5.023267,-0.670048 7.403012,-1.001545 -0.100156,0.218645 -0.200314,0.437289 -0.299056,0.634781 z M 24.625709,37.785355 c 0.02531,0.134009 0.05358,0.268022 0.08467,0.394979 0.03593,0.585412 0.107916,1.156719 0.234865,1.69276 0.0024,0.04237 0.004,0.07757 0.0046,0.119901 -0.191818,-0.648892 -0.292683,-1.403579 -0.323718,-2.20764 z m 1.635627,-8.019461 c -0.0053,0.331493 -0.02251,0.691208 -0.05091,1.086192 -0.193972,0.0078 -0.379474,0.0078 -0.569199,0.0142 0.02676,-0.38792 0.04375,-0.747629 0.04933,-1.079134 0.188327,-0.0078 0.378752,-0.01417 0.5706,-0.02108 z m 15.715185,-1.304838 c 0.35406,0.190437 0.64324,0.423189 0.881639,0.69121 -0.02536,-0.0078 -0.04802,-0.01417 -0.07332,-0.02108 -0.110734,-0.0211 -0.227818,-0.03524 -0.339961,-0.06343 -0.135427,-0.211603 -0.293412,-0.41615 -0.468329,-0.606586 z m -0.665122,13.344608 c 0.182678,-0.373819 0.367466,-0.775853 0.549447,-1.199041 0.0078,0 0.01612,0 0.02254,0 -0.139649,0.402031 -0.286361,0.804058 -0.440816,1.18493 -0.04373,0.0077 -0.0875,0.01421 -0.131197,0.01421 z m -15.297629,-8.463808 -0.177744,0 c 0.04509,-0.557206 0.08251,-1.072077 0.09805,-1.551695 0.06921,0 0.133304,0 0.203134,-0.0077 -0.04309,0.500774 -0.08607,1.022719 -0.123429,1.55875 z m 2.003102,-1.643389 c -0.01334,1.438842 -0.332911,3.611226 -0.333609,5.691903 0.0014,0.740591 0.04234,1.474119 0.156577,2.165329 -0.210894,-0.268022 -0.382282,-0.578359 -0.523345,-0.945121 -0.337847,-0.881652 -0.455641,-2.017209 -0.454228,-3.223305 -0.0014,-1.213143 0.116381,-2.482718 0.213002,-3.639438 0.310341,-0.01417 0.624917,-0.02828 0.941603,-0.04931 z m -0.28354,-1.996053 0,0.35266 c 3.001836,-0.0077 6.577795,-0.41614 9.899844,-0.4373 0.320207,0.05643 0.639008,0.105802 0.942298,0.17634 1.028352,0.239794 1.726617,0.691209 2.188599,1.304833 -0.231348,-0.08467 -0.472558,-0.155182 -0.733529,-0.211601 -1.52137,-0.338554 -3.200023,-0.4514 -4.932281,-0.4514 -2.65905,0.0077 -5.446466,0.260963 -7.951048,0.380872 0.02608,-0.387926 0.04308,-0.747639 0.04727,-1.08619 0.177735,-0.0077 0.359707,-0.02109 0.538857,-0.02827 z m -1.490338,11.059378 c 0.28636,0.218647 0.609396,0.402027 0.981102,0.536038 0.423189,0.14812 0.857665,0.253916 1.29425,0.331502 0.186917,0.324448 0.416146,0.62068 0.687685,0.881647 -0.489482,-0.06342 -0.963459,-0.176329 -1.41909,-0.338554 -0.727889,-0.260963 -1.20539,-0.74058 -1.543947,-1.410633 z m 4.549299,1.664554 c -0.416135,-0.155179 -0.749049,-0.373821 -1.022003,-0.65595 0.195366,0.0077 0.390039,0.01417 0.586819,0.01417 0.254626,0 0.510653,-0.0078 0.767381,-0.02107 0.244056,0.0142 0.488786,0.02107 0.73495,0.02107 2.638595,-0.0078 5.409081,-0.775848 7.936231,-1.072078 -0.111436,0.246858 -0.222176,0.486665 -0.331495,0.705318 -0.04508,0 -0.09094,0 -0.134713,0 -2.673159,0.0078 -5.541688,0.839323 -8.200025,1.107345 -0.112145,-0.03526 -0.226411,-0.06344 -0.337145,-0.09874 z M 42.123224,31.712572 c 0.03941,0.08466 0.07476,0.169272 0.107208,0.260964 -0.0079,-0.0078 -0.01559,-0.0142 -0.02404,-0.0211 -0.02533,-0.08466 -0.05426,-0.162218 -0.08324,-0.239803 z m -16.144018,4.944273 c 0.06415,0.811112 0.20172,1.586966 0.466924,2.285223 0.185494,0.500782 0.451402,0.959234 0.79701,1.354217 -0.653121,-0.324447 -1.074902,-0.846384 -1.374667,-1.558759 0.01267,-0.691208 0.05644,-1.39652 0.110733,-2.080681 z M 43.801874,32.2204 c 0.0035,0.677099 -0.08954,1.403576 -0.234168,2.137107 -0.02608,-0.11285 -0.05575,-0.218643 -0.08818,-0.331496 0,-0.01417 0.0027,-0.03528 0.0027,-0.05646 0.01132,-0.670049 -0.06988,-1.333043 -0.251801,-1.946669 -0.0077,-0.648892 -0.0952,-1.29074 -0.287769,-1.883198 0.215126,0.06344 0.411199,0.148115 0.593876,0.232754 0.176326,0.543092 0.255323,1.163773 0.266614,1.847929 z m 0.476092,-2.517986 c -0.531808,-1.241358 -1.560159,-2.214697 -3.245873,-2.574411 -1.52207,-0.338547 -3.199313,-0.444349 -4.930869,-0.444349 -0.272252,0 -0.547328,0.0078 -0.821701,0.0078 -0.226407,0 -0.45352,-0.0078 -0.681332,-0.0078 -3.457467,0 -7.135692,0.437299 -10.118489,0.430246 l 0,0.93807 c 0.48455,0 0.989563,-0.01418 1.502328,-0.03528 l 0,0.03528 c 2.820557,-0.0077 6.148958,-0.366765 9.297493,-0.423189 1.443083,0.02829 2.821276,0.134011 4.047822,0.40908 0.733522,0.17633 1.297081,0.451419 1.73014,0.818174 -0.737053,-0.08468 -1.49457,-0.134009 -2.270412,-0.155167 -1.247001,-0.190443 -2.57512,-0.268026 -3.94061,-0.268026 -0.180562,0 -0.363243,0.0077 -0.545215,0.0077 -0.153045,0 -0.303285,-0.0077 -0.457048,-0.0077 -3.456056,0.0077 -7.134284,0.437294 -10.117069,0.437294 l 0,0.931022 c 0.326558,0 0.663703,-0.0078 1.002961,-0.01415 l 0,0.01415 c 0.009,0 0.01832,0 0.02894,0 -0.0097,0.451402 -0.04364,0.973336 -0.08892,1.53759 l -0.65665,0 c 0.0024,1.431796 -0.335729,3.667649 -0.336432,5.804772 0.0012,1.262511 0.114258,2.496818 0.51488,3.554795 0.246152,0.655946 0.622795,1.248417 1.150366,1.699815 0.03255,0.105799 0.06416,0.204539 0.101561,0.303289 0.394988,1.050919 1.126407,1.946673 2.28171,2.355754 1.006491,0.352662 2.061649,0.486672 3.133024,0.486672 3.276197,-0.0078 6.75694,-1.19904 9.721389,-1.191984 0.136833,0 0.269427,0.0077 0.399921,0.0142 l 0.301164,0.0078 0.13613,-0.268021 c 0.219351,-0.437293 0.447174,-0.923959 0.672167,-1.4459 0.423186,-0.03526 0.838622,-0.05643 1.244887,-0.05643 0.135419,0 0.269434,0 0.402033,0.0077 l 0.298344,0.01417 0.136126,-0.268021 c 1.057273,-2.101849 2.30992,-5.325151 2.316271,-8.132318 0.02748,-1.833818 -0.599524,-3.583009 -2.20906,-4.521079"
       style="fill:#fbbc09;fill-opacity:1;fill-rule:nonzero;stroke:none"
       id="path426"
       inkscape:connector-curvature="0" />
  </g>
</svg>
